<?xml version="1.0" standalone="no"?>
<!DOCTYPE svg PUBLIC "-//W3C//DTD SVG 20010904//EN"
 "http://www.w3.org/TR/2001/REC-SVG-20010904/DTD/svg10.dtd">
<svg version="1.0" xmlns="http://www.w3.org/2000/svg"
 width="1631.290540pt" height="872.953932pt" viewBox="0 0 1631.290540 872.953932"
 preserveAspectRatio="xMidYMid meet">

<g transform="translate(-169.531676,1535.829638) scale(0.100000,-0.100000)"
fill="#000000" stroke="none">
<path d="M11140 15349 c-433 -50 -715 -134 -1085 -324 -254 -130 -432 -253
-655 -451 -136 -120 -242 -231 -348 -363 -42 -53 -79 -98 -82 -101 -3 -3 -34
-38 -69 -77 -34 -40 -70 -73 -79 -73 -9 0 -50 26 -92 58 -169 131 -353 237
-563 327 -191 82 -366 127 -662 171 -150 22 -527 22 -680 0 -451 -66 -851
-238 -1225 -525 -47 -36 -157 -137 -245 -226 -206 -207 -339 -390 -526 -724
-35 -62 -74 -120 -87 -129 -19 -12 -38 -13 -130 -3 -59 6 -184 11 -278 11
-200 0 -322 -19 -496 -76 -412 -137 -769 -457 -924 -830 -96 -232 -133 -532
-84 -684 21 -65 24 -97 14 -125 -4 -8 -74 -73 -158 -144 -337 -286 -562 -561
-726 -890 -117 -234 -183 -425 -229 -671 -57 -302 -45 -703 30 -995 51 -197
59 -223 128 -395 34 -83 138 -285 200 -385 272 -446 685 -793 1151 -970 143
-55 293 -94 441 -115 96 -14 7193 -15 7237 -2 45 15 108 63 142 109 30 41 60
129 60 175 0 36 24 84 49 98 13 7 795 10 2423 10 2294 1 2407 2 2498 19 282
55 505 143 749 295 329 204 588 468 805 819 170 276 264 524 335 887 51 263
34 623 -43 928 -54 214 -105 352 -206 552 -57 114 -100 184 -193 309 -91 124
-112 147 -239 273 -206 203 -431 358 -648 446 -219 88 -332 118 -658 172 -83
14 -83 14 -116 145 -37 150 -48 192 -66 245 -160 489 -531 870 -1010 1038 -75
26 -129 41 -295 83 -102 26 -110 36 -210 254 -93 204 -153 316 -251 467 -185
286 -438 553 -752 792 -214 163 -469 300 -782 421 -211 81 -467 138 -786 175
-105 12 -475 11 -584 -1z m630 -569 c30 -5 98 -16 150 -25 475 -80 930 -303
1270 -622 152 -142 342 -381 439 -553 31 -54 171 -337 171 -345 0 -2 13 -32
29 -67 16 -35 36 -83 44 -108 8 -25 20 -56 25 -70 6 -14 27 -70 47 -125 21
-55 49 -112 63 -127 27 -30 31 -30 237 -48 321 -26 550 -123 756 -318 46 -44
111 -116 143 -161 53 -73 133 -217 149 -267 4 -11 13 -37 22 -59 38 -99 73
-282 80 -415 4 -74 12 -148 20 -165 12 -31 80 -87 142 -119 24 -12 61 -16 150
-16 461 0 860 -151 1166 -439 100 -94 231 -257 289 -360 107 -185 183 -362
222 -513 85 -328 86 -587 5 -898 -80 -304 -224 -559 -448 -793 -284 -296 -572
-466 -945 -557 l-90 -22 -2575 -2 -2576 -1 -53 -30 c-30 -16 -75 -53 -102 -81
-60 -67 -74 -115 -58 -204 10 -58 9 -65 -8 -78 -16 -12 -474 -13 -3349 -9
l-3330 5 -110 27 c-134 33 -265 77 -363 121 -41 19 -75 34 -77 34 -15 0 -188
108 -266 167 -285 211 -497 490 -632 835 -96 242 -137 449 -137 687 0 267 55
538 151 749 16 35 29 65 29 67 0 12 120 211 169 280 236 337 572 590 956 721
218 74 390 103 605 104 326 1 594 -68 814 -210 113 -72 153 -87 209 -76 94 18
149 180 116 338 -38 176 -184 307 -459 411 -181 69 -352 103 -585 117 -254 16
-559 -10 -785 -66 -120 -30 -137 -18 -120 88 30 179 110 334 250 482 185 196
445 306 723 306 219 0 371 -45 542 -160 98 -66 131 -76 188 -60 25 7 52 20 60
29 16 18 51 115 72 200 71 292 171 522 312 718 87 121 229 278 343 379 275
242 576 385 990 471 123 25 548 25 670 0 236 -49 379 -95 525 -169 167 -84
291 -176 426 -315 83 -85 127 -149 179 -258 96 -205 125 -258 152 -285 26 -26
36 -30 86 -30 88 1 90 4 157 204 54 161 105 282 146 349 16 26 29 50 29 53 0
3 28 47 62 97 263 393 607 712 981 911 289 154 630 257 947 287 104 9 484 2
560 -11z"/>
</g>
</svg>
